<svg xmlns="http://www.w3.org/2000/svg" xmlns:xlink="http://www.w3.org/1999/xlink" version="1.2" width="148.00mm" height="210.00mm" viewBox="0.0000 -0.0000 112.2935 159.3354">
<style type="text/css">
<![CDATA[
tspan { white-space: pre; }
]]>
</style>
<g transform="translate(99.7288, 9.3287)">
<path transform="scale(0.0034, -0.0034)" d="M191 487c21 0 42 14 49 14c8 0 15 -10 15 -21v-353c0 -52 32 -99 80 -99c9 0 13 -7 13 -14s-4 -14 -13 -14c-48 0 -96 13 -144 13s-95 -13 -143 -13c-9 0 -14 7 -14 14s5 14 14 14c48 0 79 47 79 99v220c0 15 -10 22 -19 22c-5 0 -10 -1 -12 -6l-65 -129
c-3 -7 -9 -9 -15 -9c-9 0 -18 7 -18 17c0 3 1 5 2 8l127 250c7 13 35 -13 64 -13z" fill="currentColor"/>
</g>
<g transform="translate(48.2483, 13.2186)">
</g>
<g transform="translate(48.2483, 13.2186)">
<text font-family="Times New Roman" font-size="4.2672" text-anchor="start" fill="currentColor">
<tspan>Заглавие</tspan>
</text>
</g>
<g transform="translate(55.7598, 15.2283)">
<text font-family="Times New Roman" font-size="3.0175" text-anchor="start" fill="currentColor">
<tspan> </tspan>
</text>
</g>
<g transform="translate(11.3811, 17.7713)">
<rect x="86.0898" y="-0.0805" width="2.0758" height="0.1610" ry="0.0805" fill="currentColor"/>
</g>
<g transform="translate(11.3811, 18.7713)">
<rect x="86.0898" y="-0.0805" width="2.0758" height="0.1610" ry="0.0805" fill="currentColor"/>
</g>
<g transform="translate(11.3811, 19.7713)">
<rect x="86.0898" y="-0.0805" width="2.0758" height="0.1610" ry="0.0805" fill="currentColor"/>
</g>
<g transform="translate(11.3811, 20.7713)">
<rect x="86.0898" y="-0.0805" width="2.0758" height="0.1610" ry="0.0805" fill="currentColor"/>
</g>
<g transform="translate(11.3811, 21.7713)">
<rect x="86.0898" y="-0.0805" width="2.0758" height="0.1610" ry="0.0805" fill="currentColor"/>
</g>
<g transform="translate(11.3811, 22.7713)">
<rect x="86.0898" y="-0.0805" width="2.0758" height="0.1610" ry="0.0805" fill="currentColor"/>
</g>
<g transform="translate(11.3811, 23.7713)">
<rect x="86.0898" y="-0.0805" width="2.0758" height="0.1610" ry="0.0805" fill="currentColor"/>
</g>
<g transform="translate(11.3811, 24.7713)">
<rect x="86.0898" y="-0.0805" width="2.0758" height="0.1610" ry="0.0805" fill="currentColor"/>
</g>
<g transform="translate(11.3811, 25.7713)">
<rect x="86.0898" y="-0.0805" width="2.0758" height="0.1610" ry="0.0805" fill="currentColor"/>
</g>
<g transform="translate(11.3811, 26.7713)">
<rect x="86.0898" y="-0.0805" width="2.0758" height="0.1610" ry="0.0805" fill="currentColor"/>
</g>
<g transform="translate(11.3811, 27.7713)">
<rect x="86.0898" y="-0.0805" width="2.0758" height="0.1610" ry="0.0805" fill="currentColor"/>
</g>
<g transform="translate(11.3811, 28.7713)">
<rect x="86.0898" y="-0.0805" width="2.0758" height="0.1610" ry="0.0805" fill="currentColor"/>
</g>
<g transform="translate(11.3811, 29.7713)">
<rect x="86.0898" y="-0.0805" width="2.0758" height="0.1610" ry="0.0805" fill="currentColor"/>
</g>
<g transform="translate(11.3811, 30.7713)">
<rect x="86.0898" y="-0.0805" width="2.0758" height="0.1610" ry="0.0805" fill="currentColor"/>
</g>
<g transform="translate(11.3811, 31.7713)">
<rect x="86.0898" y="-0.0805" width="2.0758" height="0.1610" ry="0.0805" fill="currentColor"/>
</g>
<g transform="translate(11.3811, 32.7713)">
<rect x="86.0898" y="-0.0805" width="2.0758" height="0.1610" ry="0.0805" fill="currentColor"/>
</g>
<g transform="translate(11.3811, 33.7713)">
<rect x="86.0898" y="-0.0805" width="2.0758" height="0.1610" ry="0.0805" fill="currentColor"/>
</g>
<g transform="translate(11.3811, 34.7713)">
<rect x="86.0898" y="-0.0805" width="2.0758" height="0.1610" ry="0.0805" fill="currentColor"/>
</g>
<g transform="translate(11.3811, 35.7713)">
<rect x="86.0898" y="-0.0805" width="2.0758" height="0.1610" ry="0.0805" fill="currentColor"/>
</g>
<g transform="translate(11.3811, 36.7713)">
<rect x="86.0898" y="-0.0805" width="2.0758" height="0.1610" ry="0.0805" fill="currentColor"/>
</g>
<g transform="translate(11.3811, 37.7713)">
<rect x="86.0898" y="-0.0805" width="2.0758" height="0.1610" ry="0.0805" fill="currentColor"/>
</g>
<g transform="translate(11.3811, 18.7713)">
<rect x="82.7442" y="-0.0805" width="2.0758" height="0.1610" ry="0.0805" fill="currentColor"/>
</g>
<g transform="translate(11.3811, 19.7713)">
<rect x="82.7442" y="-0.0805" width="2.0758" height="0.1610" ry="0.0805" fill="currentColor"/>
</g>
<g transform="translate(11.3811, 20.7713)">
<rect x="82.7442" y="-0.0805" width="2.0758" height="0.1610" ry="0.0805" fill="currentColor"/>
</g>
<g transform="translate(11.3811, 21.7713)">
<rect x="82.7442" y="-0.0805" width="2.0758" height="0.1610" ry="0.0805" fill="currentColor"/>
</g>
<g transform="translate(11.3811, 22.7713)">
<rect x="82.7442" y="-0.0805" width="2.0758" height="0.1610" ry="0.0805" fill="currentColor"/>
</g>
<g transform="translate(11.3811, 23.7713)">
<rect x="82.7442" y="-0.0805" width="2.0758" height="0.1610" ry="0.0805" fill="currentColor"/>
</g>
<g transform="translate(11.3811, 24.7713)">
<rect x="82.7442" y="-0.0805" width="2.0758" height="0.1610" ry="0.0805" fill="currentColor"/>
</g>
<g transform="translate(11.3811, 25.7713)">
<rect x="82.7442" y="-0.0805" width="2.0758" height="0.1610" ry="0.0805" fill="currentColor"/>
</g>
<g transform="translate(11.3811, 26.7713)">
<rect x="82.7442" y="-0.0805" width="2.0758" height="0.1610" ry="0.0805" fill="currentColor"/>
</g>
<g transform="translate(11.3811, 27.7713)">
<rect x="82.7442" y="-0.0805" width="2.0758" height="0.1610" ry="0.0805" fill="currentColor"/>
</g>
<g transform="translate(11.3811, 28.7713)">
<rect x="82.7442" y="-0.0805" width="2.0758" height="0.1610" ry="0.0805" fill="currentColor"/>
</g>
<g transform="translate(11.3811, 29.7713)">
<rect x="82.7442" y="-0.0805" width="2.0758" height="0.1610" ry="0.0805" fill="currentColor"/>
</g>
<g transform="translate(11.3811, 30.7713)">
<rect x="82.7442" y="-0.0805" width="2.0758" height="0.1610" ry="0.0805" fill="currentColor"/>
</g>
<g transform="translate(11.3811, 31.7713)">
<rect x="82.7442" y="-0.0805" width="2.0758" height="0.1610" ry="0.0805" fill="currentColor"/>
</g>
<g transform="translate(11.3811, 32.7713)">
<rect x="82.7442" y="-0.0805" width="2.0758" height="0.1610" ry="0.0805" fill="currentColor"/>
</g>
<g transform="translate(11.3811, 33.7713)">
<rect x="82.7442" y="-0.0805" width="2.0758" height="0.1610" ry="0.0805" fill="currentColor"/>
</g>
<g transform="translate(11.3811, 34.7713)">
<rect x="82.7442" y="-0.0805" width="2.0758" height="0.1610" ry="0.0805" fill="currentColor"/>
</g>
<g transform="translate(11.3811, 35.7713)">
<rect x="82.7442" y="-0.0805" width="2.0758" height="0.1610" ry="0.0805" fill="currentColor"/>
</g>
<g transform="translate(11.3811, 36.7713)">
<rect x="82.7442" y="-0.0805" width="2.0758" height="0.1610" ry="0.0805" fill="currentColor"/>
</g>
<g transform="translate(11.3811, 37.7713)">
<rect x="82.7442" y="-0.0805" width="2.0758" height="0.1610" ry="0.0805" fill="currentColor"/>
</g>
<g transform="translate(11.3811, 19.7713)">
<rect x="79.3987" y="-0.0805" width="2.0758" height="0.1610" ry="0.0805" fill="currentColor"/>
</g>
<g transform="translate(11.3811, 20.7713)">
<rect x="79.3987" y="-0.0805" width="2.0758" height="0.1610" ry="0.0805" fill="currentColor"/>
</g>
<g transform="translate(11.3811, 21.7713)">
<rect x="79.3987" y="-0.0805" width="2.0758" height="0.1610" ry="0.0805" fill="currentColor"/>
</g>
<g transform="translate(11.3811, 22.7713)">
<rect x="79.3987" y="-0.0805" width="2.0758" height="0.1610" ry="0.0805" fill="currentColor"/>
</g>
<g transform="translate(11.3811, 23.7713)">
<rect x="79.3987" y="-0.0805" width="2.0758" height="0.1610" ry="0.0805" fill="currentColor"/>
</g>
<g transform="translate(11.3811, 24.7713)">
<rect x="79.3987" y="-0.0805" width="2.0758" height="0.1610" ry="0.0805" fill="currentColor"/>
</g>
<g transform="translate(11.3811, 25.7713)">
<rect x="79.3987" y="-0.0805" width="2.0758" height="0.1610" ry="0.0805" fill="currentColor"/>
</g>
<g transform="translate(11.3811, 26.7713)">
<rect x="79.3987" y="-0.0805" width="2.0758" height="0.1610" ry="0.0805" fill="currentColor"/>
</g>
<g transform="translate(11.3811, 27.7713)">
<rect x="79.3987" y="-0.0805" width="2.0758" height="0.1610" ry="0.0805" fill="currentColor"/>
</g>
<g transform="translate(11.3811, 28.7713)">
<rect x="79.3987" y="-0.0805" width="2.0758" height="0.1610" ry="0.0805" fill="currentColor"/>
</g>
<g transform="translate(11.3811, 29.7713)">
<rect x="79.3987" y="-0.0805" width="2.0758" height="0.1610" ry="0.0805" fill="currentColor"/>
</g>
<g transform="translate(11.3811, 30.7713)">
<rect x="79.3987" y="-0.0805" width="2.0758" height="0.1610" ry="0.0805" fill="currentColor"/>
</g>
<g transform="translate(11.3811, 31.7713)">
<rect x="79.3987" y="-0.0805" width="2.0758" height="0.1610" ry="0.0805" fill="currentColor"/>
</g>
<g transform="translate(11.3811, 32.7713)">
<rect x="79.3987" y="-0.0805" width="2.0758" height="0.1610" ry="0.0805" fill="currentColor"/>
</g>
<g transform="translate(11.3811, 33.7713)">
<rect x="79.3987" y="-0.0805" width="2.0758" height="0.1610" ry="0.0805" fill="currentColor"/>
</g>
<g transform="translate(11.3811, 34.7713)">
<rect x="79.3987" y="-0.0805" width="2.0758" height="0.1610" ry="0.0805" fill="currentColor"/>
</g>
<g transform="translate(11.3811, 35.7713)">
<rect x="79.3987" y="-0.0805" width="2.0758" height="0.1610" ry="0.0805" fill="currentColor"/>
</g>
<g transform="translate(11.3811, 36.7713)">
<rect x="79.3987" y="-0.0805" width="2.0758" height="0.1610" ry="0.0805" fill="currentColor"/>
</g>
<g transform="translate(11.3811, 37.7713)">
<rect x="79.3987" y="-0.0805" width="2.0758" height="0.1610" ry="0.0805" fill="currentColor"/>
</g>
<g transform="translate(11.3811, 20.7713)">
<rect x="76.0531" y="-0.0805" width="2.0758" height="0.1610" ry="0.0805" fill="currentColor"/>
</g>
<g transform="translate(11.3811, 21.7713)">
<rect x="76.0531" y="-0.0805" width="2.0758" height="0.1610" ry="0.0805" fill="currentColor"/>
</g>
<g transform="translate(11.3811, 22.7713)">
<rect x="76.0531" y="-0.0805" width="2.0758" height="0.1610" ry="0.0805" fill="currentColor"/>
</g>
<g transform="translate(11.3811, 23.7713)">
<rect x="76.0531" y="-0.0805" width="2.0758" height="0.1610" ry="0.0805" fill="currentColor"/>
</g>
<g transform="translate(11.3811, 24.7713)">
<rect x="76.0531" y="-0.0805" width="2.0758" height="0.1610" ry="0.0805" fill="currentColor"/>
</g>
<g transform="translate(11.3811, 25.7713)">
<rect x="76.0531" y="-0.0805" width="2.0758" height="0.1610" ry="0.0805" fill="currentColor"/>
</g>
<g transform="translate(11.3811, 26.7713)">
<rect x="76.0531" y="-0.0805" width="2.0758" height="0.1610" ry="0.0805" fill="currentColor"/>
</g>
<g transform="translate(11.3811, 27.7713)">
<rect x="76.0531" y="-0.0805" width="2.0758" height="0.1610" ry="0.0805" fill="currentColor"/>
</g>
<g transform="translate(11.3811, 28.7713)">
<rect x="76.0531" y="-0.0805" width="2.0758" height="0.1610" ry="0.0805" fill="currentColor"/>
</g>
<g transform="translate(11.3811, 29.7713)">
<rect x="76.0531" y="-0.0805" width="2.0758" height="0.1610" ry="0.0805" fill="currentColor"/>
</g>
<g transform="translate(11.3811, 30.7713)">
<rect x="76.0531" y="-0.0805" width="2.0758" height="0.1610" ry="0.0805" fill="currentColor"/>
</g>
<g transform="translate(11.3811, 31.7713)">
<rect x="76.0531" y="-0.0805" width="2.0758" height="0.1610" ry="0.0805" fill="currentColor"/>
</g>
<g transform="translate(11.3811, 32.7713)">
<rect x="76.0531" y="-0.0805" width="2.0758" height="0.1610" ry="0.0805" fill="currentColor"/>
</g>
<g transform="translate(11.3811, 33.7713)">
<rect x="76.0531" y="-0.0805" width="2.0758" height="0.1610" ry="0.0805" fill="currentColor"/>
</g>
<g transform="translate(11.3811, 34.7713)">
<rect x="76.0531" y="-0.0805" width="2.0758" height="0.1610" ry="0.0805" fill="currentColor"/>
</g>
<g transform="translate(11.3811, 35.7713)">
<rect x="76.0531" y="-0.0805" width="2.0758" height="0.1610" ry="0.0805" fill="currentColor"/>
</g>
<g transform="translate(11.3811, 36.7713)">
<rect x="76.0531" y="-0.0805" width="2.0758" height="0.1610" ry="0.0805" fill="currentColor"/>
</g>
<g transform="translate(11.3811, 37.7713)">
<rect x="76.0531" y="-0.0805" width="2.0758" height="0.1610" ry="0.0805" fill="currentColor"/>
</g>
<g transform="translate(11.3811, 21.7713)">
<rect x="72.7076" y="-0.0805" width="2.0758" height="0.1610" ry="0.0805" fill="currentColor"/>
</g>
<g transform="translate(11.3811, 22.7713)">
<rect x="72.7076" y="-0.0805" width="2.0758" height="0.1610" ry="0.0805" fill="currentColor"/>
</g>
<g transform="translate(11.3811, 23.7713)">
<rect x="72.7076" y="-0.0805" width="2.0758" height="0.1610" ry="0.0805" fill="currentColor"/>
</g>
<g transform="translate(11.3811, 24.7713)">
<rect x="72.7076" y="-0.0805" width="2.0758" height="0.1610" ry="0.0805" fill="currentColor"/>
</g>
<g transform="translate(11.3811, 25.7713)">
<rect x="72.7076" y="-0.0805" width="2.0758" height="0.1610" ry="0.0805" fill="currentColor"/>
</g>
<g transform="translate(11.3811, 26.7713)">
<rect x="72.7076" y="-0.0805" width="2.0758" height="0.1610" ry="0.0805" fill="currentColor"/>
</g>
<g transform="translate(11.3811, 27.7713)">
<rect x="72.7076" y="-0.0805" width="2.0758" height="0.1610" ry="0.0805" fill="currentColor"/>
</g>
<g transform="translate(11.3811, 28.7713)">
<rect x="72.7076" y="-0.0805" width="2.0758" height="0.1610" ry="0.0805" fill="currentColor"/>
</g>
<g transform="translate(11.3811, 29.7713)">
<rect x="72.7076" y="-0.0805" width="2.0758" height="0.1610" ry="0.0805" fill="currentColor"/>
</g>
<g transform="translate(11.3811, 30.7713)">
<rect x="72.7076" y="-0.0805" width="2.0758" height="0.1610" ry="0.0805" fill="currentColor"/>
</g>
<g transform="translate(11.3811, 31.7713)">
<rect x="72.7076" y="-0.0805" width="2.0758" height="0.1610" ry="0.0805" fill="currentColor"/>
</g>
<g transform="translate(11.3811, 32.7713)">
<rect x="72.7076" y="-0.0805" width="2.0758" height="0.1610" ry="0.0805" fill="currentColor"/>
</g>
<g transform="translate(11.3811, 33.7713)">
<rect x="72.7076" y="-0.0805" width="2.0758" height="0.1610" ry="0.0805" fill="currentColor"/>
</g>
<g transform="translate(11.3811, 34.7713)">
<rect x="72.7076" y="-0.0805" width="2.0758" height="0.1610" ry="0.0805" fill="currentColor"/>
</g>
<g transform="translate(11.3811, 35.7713)">
<rect x="72.7076" y="-0.0805" width="2.0758" height="0.1610" ry="0.0805" fill="currentColor"/>
</g>
<g transform="translate(11.3811, 36.7713)">
<rect x="72.7076" y="-0.0805" width="2.0758" height="0.1610" ry="0.0805" fill="currentColor"/>
</g>
<g transform="translate(11.3811, 37.7713)">
<rect x="72.7076" y="-0.0805" width="2.0758" height="0.1610" ry="0.0805" fill="currentColor"/>
</g>
<g transform="translate(11.3811, 22.7713)">
<rect x="69.3620" y="-0.0805" width="2.0758" height="0.1610" ry="0.0805" fill="currentColor"/>
</g>
<g transform="translate(11.3811, 23.7713)">
<rect x="69.3620" y="-0.0805" width="2.0758" height="0.1610" ry="0.0805" fill="currentColor"/>
</g>
<g transform="translate(11.3811, 24.7713)">
<rect x="69.3620" y="-0.0805" width="2.0758" height="0.1610" ry="0.0805" fill="currentColor"/>
</g>
<g transform="translate(11.3811, 25.7713)">
<rect x="69.3620" y="-0.0805" width="2.0758" height="0.1610" ry="0.0805" fill="currentColor"/>
</g>
<g transform="translate(11.3811, 26.7713)">
<rect x="69.3620" y="-0.0805" width="2.0758" height="0.1610" ry="0.0805" fill="currentColor"/>
</g>
<g transform="translate(11.3811, 27.7713)">
<rect x="69.3620" y="-0.0805" width="2.0758" height="0.1610" ry="0.0805" fill="currentColor"/>
</g>
<g transform="translate(11.3811, 28.7713)">
<rect x="69.3620" y="-0.0805" width="2.0758" height="0.1610" ry="0.0805" fill="currentColor"/>
</g>
<g transform="translate(11.3811, 29.7713)">
<rect x="69.3620" y="-0.0805" width="2.0758" height="0.1610" ry="0.0805" fill="currentColor"/>
</g>
<g transform="translate(11.3811, 30.7713)">
<rect x="69.3620" y="-0.0805" width="2.0758" height="0.1610" ry="0.0805" fill="currentColor"/>
</g>
<g transform="translate(11.3811, 31.7713)">
<rect x="69.3620" y="-0.0805" width="2.0758" height="0.1610" ry="0.0805" fill="currentColor"/>
</g>
<g transform="translate(11.3811, 32.7713)">
<rect x="69.3620" y="-0.0805" width="2.0758" height="0.1610" ry="0.0805" fill="currentColor"/>
</g>
<g transform="translate(11.3811, 33.7713)">
<rect x="69.3620" y="-0.0805" width="2.0758" height="0.1610" ry="0.0805" fill="currentColor"/>
</g>
<g transform="translate(11.3811, 34.7713)">
<rect x="69.3620" y="-0.0805" width="2.0758" height="0.1610" ry="0.0805" fill="currentColor"/>
</g>
<g transform="translate(11.3811, 35.7713)">
<rect x="69.3620" y="-0.0805" width="2.0758" height="0.1610" ry="0.0805" fill="currentColor"/>
</g>
<g transform="translate(11.3811, 36.7713)">
<rect x="69.3620" y="-0.0805" width="2.0758" height="0.1610" ry="0.0805" fill="currentColor"/>
</g>
<g transform="translate(11.3811, 37.7713)">
<rect x="69.3620" y="-0.0805" width="2.0758" height="0.1610" ry="0.0805" fill="currentColor"/>
</g>
<g transform="translate(11.3811, 24.7713)">
<rect x="66.0164" y="-0.0805" width="2.0758" height="0.1610" ry="0.0805" fill="currentColor"/>
</g>
<g transform="translate(11.3811, 25.7713)">
<rect x="66.0164" y="-0.0805" width="2.0758" height="0.1610" ry="0.0805" fill="currentColor"/>
</g>
<g transform="translate(11.3811, 26.7713)">
<rect x="66.0164" y="-0.0805" width="2.0758" height="0.1610" ry="0.0805" fill="currentColor"/>
</g>
<g transform="translate(11.3811, 27.7713)">
<rect x="66.0164" y="-0.0805" width="2.0758" height="0.1610" ry="0.0805" fill="currentColor"/>
</g>
<g transform="translate(11.3811, 28.7713)">
<rect x="66.0164" y="-0.0805" width="2.0758" height="0.1610" ry="0.0805" fill="currentColor"/>
</g>
<g transform="translate(11.3811, 29.7713)">
<rect x="66.0164" y="-0.0805" width="2.0758" height="0.1610" ry="0.0805" fill="currentColor"/>
</g>
<g transform="translate(11.3811, 30.7713)">
<rect x="66.0164" y="-0.0805" width="2.0758" height="0.1610" ry="0.0805" fill="currentColor"/>
</g>
<g transform="translate(11.3811, 31.7713)">
<rect x="66.0164" y="-0.0805" width="2.0758" height="0.1610" ry="0.0805" fill="currentColor"/>
</g>
<g transform="translate(11.3811, 32.7713)">
<rect x="66.0164" y="-0.0805" width="2.0758" height="0.1610" ry="0.0805" fill="currentColor"/>
</g>
<g transform="translate(11.3811, 33.7713)">
<rect x="66.0164" y="-0.0805" width="2.0758" height="0.1610" ry="0.0805" fill="currentColor"/>
</g>
<g transform="translate(11.3811, 34.7713)">
<rect x="66.0164" y="-0.0805" width="2.0758" height="0.1610" ry="0.0805" fill="currentColor"/>
</g>
<g transform="translate(11.3811, 35.7713)">
<rect x="66.0164" y="-0.0805" width="2.0758" height="0.1610" ry="0.0805" fill="currentColor"/>
</g>
<g transform="translate(11.3811, 36.7713)">
<rect x="66.0164" y="-0.0805" width="2.0758" height="0.1610" ry="0.0805" fill="currentColor"/>
</g>
<g transform="translate(11.3811, 37.7713)">
<rect x="66.0164" y="-0.0805" width="2.0758" height="0.1610" ry="0.0805" fill="currentColor"/>
</g>
<g transform="translate(11.3811, 25.7713)">
<rect x="62.6709" y="-0.0805" width="2.0758" height="0.1610" ry="0.0805" fill="currentColor"/>
</g>
<g transform="translate(11.3811, 26.7713)">
<rect x="62.6709" y="-0.0805" width="2.0758" height="0.1610" ry="0.0805" fill="currentColor"/>
</g>
<g transform="translate(11.3811, 27.7713)">
<rect x="62.6709" y="-0.0805" width="2.0758" height="0.1610" ry="0.0805" fill="currentColor"/>
</g>
<g transform="translate(11.3811, 28.7713)">
<rect x="62.6709" y="-0.0805" width="2.0758" height="0.1610" ry="0.0805" fill="currentColor"/>
</g>
<g transform="translate(11.3811, 29.7713)">
<rect x="62.6709" y="-0.0805" width="2.0758" height="0.1610" ry="0.0805" fill="currentColor"/>
</g>
<g transform="translate(11.3811, 30.7713)">
<rect x="62.6709" y="-0.0805" width="2.0758" height="0.1610" ry="0.0805" fill="currentColor"/>
</g>
<g transform="translate(11.3811, 31.7713)">
<rect x="62.6709" y="-0.0805" width="2.0758" height="0.1610" ry="0.0805" fill="currentColor"/>
</g>
<g transform="translate(11.3811, 32.7713)">
<rect x="62.6709" y="-0.0805" width="2.0758" height="0.1610" ry="0.0805" fill="currentColor"/>
</g>
<g transform="translate(11.3811, 33.7713)">
<rect x="62.6709" y="-0.0805" width="2.0758" height="0.1610" ry="0.0805" fill="currentColor"/>
</g>
<g transform="translate(11.3811, 34.7713)">
<rect x="62.6709" y="-0.0805" width="2.0758" height="0.1610" ry="0.0805" fill="currentColor"/>
</g>
<g transform="translate(11.3811, 35.7713)">
<rect x="62.6709" y="-0.0805" width="2.0758" height="0.1610" ry="0.0805" fill="currentColor"/>
</g>
<g transform="translate(11.3811, 36.7713)">
<rect x="62.6709" y="-0.0805" width="2.0758" height="0.1610" ry="0.0805" fill="currentColor"/>
</g>
<g transform="translate(11.3811, 37.7713)">
<rect x="62.6709" y="-0.0805" width="2.0758" height="0.1610" ry="0.0805" fill="currentColor"/>
</g>
<g transform="translate(11.3811, 26.7713)">
<rect x="59.3253" y="-0.0805" width="2.0758" height="0.1610" ry="0.0805" fill="currentColor"/>
</g>
<g transform="translate(11.3811, 27.7713)">
<rect x="59.3253" y="-0.0805" width="2.0758" height="0.1610" ry="0.0805" fill="currentColor"/>
</g>
<g transform="translate(11.3811, 28.7713)">
<rect x="59.3253" y="-0.0805" width="2.0758" height="0.1610" ry="0.0805" fill="currentColor"/>
</g>
<g transform="translate(11.3811, 29.7713)">
<rect x="59.3253" y="-0.0805" width="2.0758" height="0.1610" ry="0.0805" fill="currentColor"/>
</g>
<g transform="translate(11.3811, 30.7713)">
<rect x="59.3253" y="-0.0805" width="2.0758" height="0.1610" ry="0.0805" fill="currentColor"/>
</g>
<g transform="translate(11.3811, 31.7713)">
<rect x="59.3253" y="-0.0805" width="2.0758" height="0.1610" ry="0.0805" fill="currentColor"/>
</g>
<g transform="translate(11.3811, 32.7713)">
<rect x="59.3253" y="-0.0805" width="2.0758" height="0.1610" ry="0.0805" fill="currentColor"/>
</g>
<g transform="translate(11.3811, 33.7713)">
<rect x="59.3253" y="-0.0805" width="2.0758" height="0.1610" ry="0.0805" fill="currentColor"/>
</g>
<g transform="translate(11.3811, 34.7713)">
<rect x="59.3253" y="-0.0805" width="2.0758" height="0.1610" ry="0.0805" fill="currentColor"/>
</g>
<g transform="translate(11.3811, 35.7713)">
<rect x="59.3253" y="-0.0805" width="2.0758" height="0.1610" ry="0.0805" fill="currentColor"/>
</g>
<g transform="translate(11.3811, 36.7713)">
<rect x="59.3253" y="-0.0805" width="2.0758" height="0.1610" ry="0.0805" fill="currentColor"/>
</g>
<g transform="translate(11.3811, 37.7713)">
<rect x="59.3253" y="-0.0805" width="2.0758" height="0.1610" ry="0.0805" fill="currentColor"/>
</g>
<g transform="translate(11.3811, 27.7713)">
<rect x="55.9797" y="-0.0805" width="2.0758" height="0.1610" ry="0.0805" fill="currentColor"/>
</g>
<g transform="translate(11.3811, 28.7713)">
<rect x="55.9797" y="-0.0805" width="2.0758" height="0.1610" ry="0.0805" fill="currentColor"/>
</g>
<g transform="translate(11.3811, 29.7713)">
<rect x="55.9797" y="-0.0805" width="2.0758" height="0.1610" ry="0.0805" fill="currentColor"/>
</g>
<g transform="translate(11.3811, 30.7713)">
<rect x="55.9797" y="-0.0805" width="2.0758" height="0.1610" ry="0.0805" fill="currentColor"/>
</g>
<g transform="translate(11.3811, 31.7713)">
<rect x="55.9797" y="-0.0805" width="2.0758" height="0.1610" ry="0.0805" fill="currentColor"/>
</g>
<g transform="translate(11.3811, 32.7713)">
<rect x="55.9797" y="-0.0805" width="2.0758" height="0.1610" ry="0.0805" fill="currentColor"/>
</g>
<g transform="translate(11.3811, 33.7713)">
<rect x="55.9797" y="-0.0805" width="2.0758" height="0.1610" ry="0.0805" fill="currentColor"/>
</g>
<g transform="translate(11.3811, 34.7713)">
<rect x="55.9797" y="-0.0805" width="2.0758" height="0.1610" ry="0.0805" fill="currentColor"/>
</g>
<g transform="translate(11.3811, 35.7713)">
<rect x="55.9797" y="-0.0805" width="2.0758" height="0.1610" ry="0.0805" fill="currentColor"/>
</g>
<g transform="translate(11.3811, 36.7713)">
<rect x="55.9797" y="-0.0805" width="2.0758" height="0.1610" ry="0.0805" fill="currentColor"/>
</g>
<g transform="translate(11.3811, 37.7713)">
<rect x="55.9797" y="-0.0805" width="2.0758" height="0.1610" ry="0.0805" fill="currentColor"/>
</g>
<g transform="translate(11.3811, 28.7713)">
<rect x="52.6342" y="-0.0805" width="2.0758" height="0.1610" ry="0.0805" fill="currentColor"/>
</g>
<g transform="translate(11.3811, 29.7713)">
<rect x="52.6342" y="-0.0805" width="2.0758" height="0.1610" ry="0.0805" fill="currentColor"/>
</g>
<g transform="translate(11.3811, 30.7713)">
<rect x="52.6342" y="-0.0805" width="2.0758" height="0.1610" ry="0.0805" fill="currentColor"/>
</g>
<g transform="translate(11.3811, 31.7713)">
<rect x="52.6342" y="-0.0805" width="2.0758" height="0.1610" ry="0.0805" fill="currentColor"/>
</g>
<g transform="translate(11.3811, 32.7713)">
<rect x="52.6342" y="-0.0805" width="2.0758" height="0.1610" ry="0.0805" fill="currentColor"/>
</g>
<g transform="translate(11.3811, 33.7713)">
<rect x="52.6342" y="-0.0805" width="2.0758" height="0.1610" ry="0.0805" fill="currentColor"/>
</g>
<g transform="translate(11.3811, 34.7713)">
<rect x="52.6342" y="-0.0805" width="2.0758" height="0.1610" ry="0.0805" fill="currentColor"/>
</g>
<g transform="translate(11.3811, 35.7713)">
<rect x="52.6342" y="-0.0805" width="2.0758" height="0.1610" ry="0.0805" fill="currentColor"/>
</g>
<g transform="translate(11.3811, 36.7713)">
<rect x="52.6342" y="-0.0805" width="2.0758" height="0.1610" ry="0.0805" fill="currentColor"/>
</g>
<g transform="translate(11.3811, 37.7713)">
<rect x="52.6342" y="-0.0805" width="2.0758" height="0.1610" ry="0.0805" fill="currentColor"/>
</g>
<g transform="translate(11.3811, 29.7713)">
<rect x="49.2886" y="-0.0805" width="2.0758" height="0.1610" ry="0.0805" fill="currentColor"/>
</g>
<g transform="translate(11.3811, 30.7713)">
<rect x="49.2886" y="-0.0805" width="2.0758" height="0.1610" ry="0.0805" fill="currentColor"/>
</g>
<g transform="translate(11.3811, 31.7713)">
<rect x="49.2886" y="-0.0805" width="2.0758" height="0.1610" ry="0.0805" fill="currentColor"/>
</g>
<g transform="translate(11.3811, 32.7713)">
<rect x="49.2886" y="-0.0805" width="2.0758" height="0.1610" ry="0.0805" fill="currentColor"/>
</g>
<g transform="translate(11.3811, 33.7713)">
<rect x="49.2886" y="-0.0805" width="2.0758" height="0.1610" ry="0.0805" fill="currentColor"/>
</g>
<g transform="translate(11.3811, 34.7713)">
<rect x="49.2886" y="-0.0805" width="2.0758" height="0.1610" ry="0.0805" fill="currentColor"/>
</g>
<g transform="translate(11.3811, 35.7713)">
<rect x="49.2886" y="-0.0805" width="2.0758" height="0.1610" ry="0.0805" fill="currentColor"/>
</g>
<g transform="translate(11.3811, 36.7713)">
<rect x="49.2886" y="-0.0805" width="2.0758" height="0.1610" ry="0.0805" fill="currentColor"/>
</g>
<g transform="translate(11.3811, 37.7713)">
<rect x="49.2886" y="-0.0805" width="2.0758" height="0.1610" ry="0.0805" fill="currentColor"/>
</g>
<g transform="translate(11.3811, 31.7713)">
<rect x="45.9431" y="-0.0805" width="2.0758" height="0.1610" ry="0.0805" fill="currentColor"/>
</g>
<g transform="translate(11.3811, 32.7713)">
<rect x="45.9431" y="-0.0805" width="2.0758" height="0.1610" ry="0.0805" fill="currentColor"/>
</g>
<g transform="translate(11.3811, 33.7713)">
<rect x="45.9431" y="-0.0805" width="2.0758" height="0.1610" ry="0.0805" fill="currentColor"/>
</g>
<g transform="translate(11.3811, 34.7713)">
<rect x="45.9431" y="-0.0805" width="2.0758" height="0.1610" ry="0.0805" fill="currentColor"/>
</g>
<g transform="translate(11.3811, 35.7713)">
<rect x="45.9431" y="-0.0805" width="2.0758" height="0.1610" ry="0.0805" fill="currentColor"/>
</g>
<g transform="translate(11.3811, 36.7713)">
<rect x="45.9431" y="-0.0805" width="2.0758" height="0.1610" ry="0.0805" fill="currentColor"/>
</g>
<g transform="translate(11.3811, 37.7713)">
<rect x="45.9431" y="-0.0805" width="2.0758" height="0.1610" ry="0.0805" fill="currentColor"/>
</g>
<g transform="translate(11.3811, 32.7713)">
<rect x="42.5975" y="-0.0805" width="2.0758" height="0.1610" ry="0.0805" fill="currentColor"/>
</g>
<g transform="translate(11.3811, 33.7713)">
<rect x="42.5975" y="-0.0805" width="2.0758" height="0.1610" ry="0.0805" fill="currentColor"/>
</g>
<g transform="translate(11.3811, 34.7713)">
<rect x="42.5975" y="-0.0805" width="2.0758" height="0.1610" ry="0.0805" fill="currentColor"/>
</g>
<g transform="translate(11.3811, 35.7713)">
<rect x="42.5975" y="-0.0805" width="2.0758" height="0.1610" ry="0.0805" fill="currentColor"/>
</g>
<g transform="translate(11.3811, 36.7713)">
<rect x="42.5975" y="-0.0805" width="2.0758" height="0.1610" ry="0.0805" fill="currentColor"/>
</g>
<g transform="translate(11.3811, 37.7713)">
<rect x="42.5975" y="-0.0805" width="2.0758" height="0.1610" ry="0.0805" fill="currentColor"/>
</g>
<g transform="translate(11.3811, 33.7713)">
<rect x="39.2519" y="-0.0805" width="2.0758" height="0.1610" ry="0.0805" fill="currentColor"/>
</g>
<g transform="translate(11.3811, 34.7713)">
<rect x="39.2519" y="-0.0805" width="2.0758" height="0.1610" ry="0.0805" fill="currentColor"/>
</g>
<g transform="translate(11.3811, 35.7713)">
<rect x="39.2519" y="-0.0805" width="2.0758" height="0.1610" ry="0.0805" fill="currentColor"/>
</g>
<g transform="translate(11.3811, 36.7713)">
<rect x="39.2519" y="-0.0805" width="2.0758" height="0.1610" ry="0.0805" fill="currentColor"/>
</g>
<g transform="translate(11.3811, 37.7713)">
<rect x="39.2519" y="-0.0805" width="2.0758" height="0.1610" ry="0.0805" fill="currentColor"/>
</g>
<g transform="translate(11.3811, 34.7713)">
<rect x="35.9064" y="-0.0805" width="2.0758" height="0.1610" ry="0.0805" fill="currentColor"/>
</g>
<g transform="translate(11.3811, 35.7713)">
<rect x="35.9064" y="-0.0805" width="2.0758" height="0.1610" ry="0.0805" fill="currentColor"/>
</g>
<g transform="translate(11.3811, 36.7713)">
<rect x="35.9064" y="-0.0805" width="2.0758" height="0.1610" ry="0.0805" fill="currentColor"/>
</g>
<g transform="translate(11.3811, 37.7713)">
<rect x="35.9064" y="-0.0805" width="2.0758" height="0.1610" ry="0.0805" fill="currentColor"/>
</g>
<g transform="translate(11.3811, 35.7713)">
<rect x="32.5608" y="-0.0805" width="2.0758" height="0.1610" ry="0.0805" fill="currentColor"/>
</g>
<g transform="translate(11.3811, 36.7713)">
<rect x="32.5608" y="-0.0805" width="2.0758" height="0.1610" ry="0.0805" fill="currentColor"/>
</g>
<g transform="translate(11.3811, 37.7713)">
<rect x="32.5608" y="-0.0805" width="2.0758" height="0.1610" ry="0.0805" fill="currentColor"/>
</g>
<g transform="translate(11.3811, 36.7713)">
<rect x="29.2152" y="-0.0805" width="2.0758" height="0.1610" ry="0.0805" fill="currentColor"/>
</g>
<g transform="translate(11.3811, 37.7713)">
<rect x="29.2152" y="-0.0805" width="2.0758" height="0.1610" ry="0.0805" fill="currentColor"/>
</g>
<g transform="translate(11.3811, 43.7713)">
<rect x="9.2477" y="-0.0805" width="2.0758" height="0.1610" ry="0.0805" fill="currentColor"/>
</g>
<g transform="translate(15.1748, 42.7713)">
<line stroke-linejoin="round" stroke-linecap="round" stroke-width="0.0610" stroke="currentColor" x1="0.0305" y1="0" x2="85.7072" y2="0"/>
</g>
<g transform="translate(15.1748, 41.7713)">
<line stroke-linejoin="round" stroke-linecap="round" stroke-width="0.0610" stroke="currentColor" x1="0.0305" y1="0" x2="85.7072" y2="0"/>
</g>
<g transform="translate(15.1748, 40.7713)">
<line stroke-linejoin="round" stroke-linecap="round" stroke-width="0.0610" stroke="currentColor" x1="0.0305" y1="0" x2="85.7072" y2="0"/>
</g>
<g transform="translate(15.1748, 39.7713)">
<line stroke-linejoin="round" stroke-linecap="round" stroke-width="0.0610" stroke="currentColor" x1="0.0305" y1="0" x2="85.7072" y2="0"/>
</g>
<g transform="translate(15.1748, 38.7713)">
<line stroke-linejoin="round" stroke-linecap="round" stroke-width="0.0610" stroke="currentColor" x1="0.0305" y1="0" x2="85.7072" y2="0"/>
</g>
<a style="color:inherit;" xlink:href="textedit:///Users/mariya/repos/pesnarka_bd_2012/sheets/bg-new/000_empty_template.ly:17:6:7">
<g transform="translate(20.9748, 43.7713)">
<path transform="scale(0.0040, -0.0040)" d="M310 63c0 22 -17 40 -40 40c-38 0 -197 -107 -224 -139c-7 -8 -10 -17 -10 -27c0 -22 17 -40 40 -40c38 0 197 107 224 139c7 8 10 17 10 27zM256 138c55 0 90 -22 90 -77c0 -25 -15 -112 -73 -151c-34 -23 -92 -48 -183 -48c-55 0 -90 22 -90 77c0 25 15 112 73 151
c34 23 92 48 183 48z" fill="currentColor"/>
</g>
</a>
<g transform="translate(15.9748, 41.7713)">
<path transform="scale(0.0040, -0.0040)" d="M647 2c0 -114 -75 -214 -180 -248c3 -33 4 -66 4 -99c0 -21 0 -41 -1 -62c-7 -122 -92 -229 -211 -229c-108 0 -196 88 -196 197c0 58 54 103 113 103c54 0 95 -47 95 -103c0 -52 -43 -95 -95 -95c-9 0 -18 1 -27 4c25 -37 66 -61 113 -61c93 0 156 91 162 191
c1 19 2 38 2 57c0 29 -1 58 -3 87c-5 -1 -44 -8 -88 -8c-194 0 -333 181 -333 376c0 177 129 308 244 443c-34 103 -55 171 -55 347c0 114 54 221 147 288c8 6 18 5 25 -1c68 -79 135 -242 135 -356c0 -142 -84 -255 -176 -364c21 -68 40 -136 57 -205c1 0 5 1 10 1
c157 0 258 -129 258 -263zM463 -201c64 24 110 88 110 161c0 88 -64 175 -167 188c28 -133 49 -269 57 -349zM77 25c0 -144 141 -243 261 -243c1 0 46 -1 81 5c-7 66 -27 208 -60 362c-79 -8 -124 -60 -124 -118c0 -43 25 -88 80 -120c5 -5 7 -11 7 -17
c0 -12 -10 -23 -23 -23c-16 0 -128 62 -128 188c0 89 60 177 163 200c-14 57 -30 113 -47 169c-105 -122 -210 -243 -210 -403zM242 784c0 -39 10 -95 39 -188c78 97 142 199 142 324c0 33 0 60 -20 118c-99 -46 -161 -145 -161 -254z" fill="currentColor"/>
</g>
<g transform="translate(22.3191, 40.7713)">
<rect x="-0.0396" y="-0.5000" width="0.0792" height="3.2544" ry="0.0396" fill="currentColor"/>
</g>
<a style="color:inherit;" xlink:href="textedit:///Users/mariya/repos/pesnarka_bd_2012/sheets/bg-new/000_empty_template.ly:17:9:10">
<g transform="translate(24.3204, 42.7713)">
<path transform="scale(0.0040, -0.0040)" d="M310 63c0 22 -17 40 -40 40c-38 0 -197 -107 -224 -139c-7 -8 -10 -17 -10 -27c0 -22 17 -40 40 -40c38 0 197 107 224 139c7 8 10 17 10 27zM256 138c55 0 90 -22 90 -77c0 -25 -15 -112 -73 -151c-34 -23 -92 -48 -183 -48c-55 0 -90 22 -90 77c0 25 15 112 73 151
c34 23 92 48 183 48z" fill="currentColor"/>
</g>
</a>
<g transform="translate(25.6646, 40.7713)">
<rect x="-0.0396" y="-1.5000" width="0.0792" height="3.2544" ry="0.0396" fill="currentColor"/>
</g>
<g transform="translate(97.8565, 40.7713)">
<rect x="-0.0396" y="-23.2544" width="0.0792" height="23.2544" ry="0.0396" fill="currentColor"/>
</g>
<a style="color:inherit;" xlink:href="textedit:///Users/mariya/repos/pesnarka_bd_2012/sheets/bg-new/000_empty_template.ly:17:11:12">
<g transform="translate(27.6659, 41.7713)">
<path transform="scale(0.0040, -0.0040)" d="M310 63c0 22 -17 40 -40 40c-38 0 -197 -107 -224 -139c-7 -8 -10 -17 -10 -27c0 -22 17 -40 40 -40c38 0 197 107 224 139c7 8 10 17 10 27zM256 138c55 0 90 -22 90 -77c0 -25 -15 -112 -73 -151c-34 -23 -92 -48 -183 -48c-55 0 -90 22 -90 77c0 25 15 112 73 151
c34 23 92 48 183 48z" fill="currentColor"/>
</g>
</a>
<g transform="translate(29.0102, 40.7713)">
<rect x="-0.0396" y="-2.5000" width="0.0792" height="3.2544" ry="0.0396" fill="currentColor"/>
</g>
<a style="color:inherit;" xlink:href="textedit:///Users/mariya/repos/pesnarka_bd_2012/sheets/bg-new/000_empty_template.ly:17:74:75">
<g transform="translate(97.8169, 17.2713)">
<path transform="scale(0.0040, -0.0040)" d="M310 63c0 22 -17 40 -40 40c-38 0 -197 -107 -224 -139c-7 -8 -10 -17 -10 -27c0 -22 17 -40 40 -40c38 0 197 107 224 139c7 8 10 17 10 27zM256 138c55 0 90 -22 90 -77c0 -25 -15 -112 -73 -151c-34 -23 -92 -48 -183 -48c-55 0 -90 22 -90 77c0 25 15 112 73 151
c34 23 92 48 183 48z" fill="currentColor"/>
</g>
</a>
<a style="color:inherit;" xlink:href="textedit:///Users/mariya/repos/pesnarka_bd_2012/sheets/bg-new/000_empty_template.ly:17:15:16">
<g transform="translate(30.9056, 40.2713)">
<path transform="scale(0.0040, -0.0040)" d="M310 63c0 22 -17 40 -40 40c-38 0 -197 -107 -224 -139c-7 -8 -10 -17 -10 -27c0 -22 17 -40 40 -40c38 0 197 107 224 139c7 8 10 17 10 27zM256 138c55 0 90 -22 90 -77c0 -25 -15 -112 -73 -151c-34 -23 -92 -48 -183 -48c-55 0 -90 22 -90 77c0 25 15 112 73 151
c34 23 92 48 183 48z" fill="currentColor"/>
</g>
</a>
<g transform="translate(30.9452, 40.7713)">
<rect x="-0.0396" y="-0.2544" width="0.0792" height="3.2544" ry="0.0396" fill="currentColor"/>
</g>
<a style="color:inherit;" xlink:href="textedit:///Users/mariya/repos/pesnarka_bd_2012/sheets/bg-new/000_empty_template.ly:17:18:19">
<g transform="translate(34.2512, 39.2713)">
<path transform="scale(0.0040, -0.0040)" d="M310 63c0 22 -17 40 -40 40c-38 0 -197 -107 -224 -139c-7 -8 -10 -17 -10 -27c0 -22 17 -40 40 -40c38 0 197 107 224 139c7 8 10 17 10 27zM256 138c55 0 90 -22 90 -77c0 -25 -15 -112 -73 -151c-34 -23 -92 -48 -183 -48c-55 0 -90 22 -90 77c0 25 15 112 73 151
c34 23 92 48 183 48z" fill="currentColor"/>
</g>
</a>
<g transform="translate(34.2908, 40.7713)">
<rect x="-0.0396" y="-1.2544" width="0.0792" height="3.2544" ry="0.0396" fill="currentColor"/>
</g>
<a style="color:inherit;" xlink:href="textedit:///Users/mariya/repos/pesnarka_bd_2012/sheets/bg-new/000_empty_template.ly:17:20:21">
<g transform="translate(37.5967, 38.2713)">
<path transform="scale(0.0040, -0.0040)" d="M310 63c0 22 -17 40 -40 40c-38 0 -197 -107 -224 -139c-7 -8 -10 -17 -10 -27c0 -22 17 -40 40 -40c38 0 197 107 224 139c7 8 10 17 10 27zM256 138c55 0 90 -22 90 -77c0 -25 -15 -112 -73 -151c-34 -23 -92 -48 -183 -48c-55 0 -90 22 -90 77c0 25 15 112 73 151
c34 23 92 48 183 48z" fill="currentColor"/>
</g>
</a>
<g transform="translate(37.6364, 40.7713)">
<rect x="-0.0396" y="-2.2544" width="0.0792" height="3.2544" ry="0.0396" fill="currentColor"/>
</g>
<a style="color:inherit;" xlink:href="textedit:///Users/mariya/repos/pesnarka_bd_2012/sheets/bg-new/000_empty_template.ly:17:24:25">
<g transform="translate(40.9423, 36.7713)">
<path transform="scale(0.0040, -0.0040)" d="M310 63c0 22 -17 40 -40 40c-38 0 -197 -107 -224 -139c-7 -8 -10 -17 -10 -27c0 -22 17 -40 40 -40c38 0 197 107 224 139c7 8 10 17 10 27zM256 138c55 0 90 -22 90 -77c0 -25 -15 -112 -73 -151c-34 -23 -92 -48 -183 -48c-55 0 -90 22 -90 77c0 25 15 112 73 151
c34 23 92 48 183 48z" fill="currentColor"/>
</g>
</a>
<g transform="translate(40.9819, 40.7713)">
<rect x="-0.0396" y="-3.7544" width="0.0792" height="3.7544" ry="0.0396" fill="currentColor"/>
</g>
<g transform="translate(94.5109, 40.7713)">
<rect x="-0.0396" y="-22.2544" width="0.0792" height="22.2544" ry="0.0396" fill="currentColor"/>
</g>
<a style="color:inherit;" xlink:href="textedit:///Users/mariya/repos/pesnarka_bd_2012/sheets/bg-new/000_empty_template.ly:17:27:28">
<g transform="translate(44.2879, 35.7713)">
<path transform="scale(0.0040, -0.0040)" d="M310 63c0 22 -17 40 -40 40c-38 0 -197 -107 -224 -139c-7 -8 -10 -17 -10 -27c0 -22 17 -40 40 -40c38 0 197 107 224 139c7 8 10 17 10 27zM256 138c55 0 90 -22 90 -77c0 -25 -15 -112 -73 -151c-34 -23 -92 -48 -183 -48c-55 0 -90 22 -90 77c0 25 15 112 73 151
c34 23 92 48 183 48z" fill="currentColor"/>
</g>
</a>
<g transform="translate(44.3275, 40.7713)">
<rect x="-0.0396" y="-4.7544" width="0.0792" height="4.7544" ry="0.0396" fill="currentColor"/>
</g>
<a style="color:inherit;" xlink:href="textedit:///Users/mariya/repos/pesnarka_bd_2012/sheets/bg-new/000_empty_template.ly:17:72:73">
<g transform="translate(94.4713, 18.2713)">
<path transform="scale(0.0040, -0.0040)" d="M310 63c0 22 -17 40 -40 40c-38 0 -197 -107 -224 -139c-7 -8 -10 -17 -10 -27c0 -22 17 -40 40 -40c38 0 197 107 224 139c7 8 10 17 10 27zM256 138c55 0 90 -22 90 -77c0 -25 -15 -112 -73 -151c-34 -23 -92 -48 -183 -48c-55 0 -90 22 -90 77c0 25 15 112 73 151
c34 23 92 48 183 48z" fill="currentColor"/>
</g>
</a>
<a style="color:inherit;" xlink:href="textedit:///Users/mariya/repos/pesnarka_bd_2012/sheets/bg-new/000_empty_template.ly:17:29:30">
<g transform="translate(47.6334, 34.7713)">
<path transform="scale(0.0040, -0.0040)" d="M310 63c0 22 -17 40 -40 40c-38 0 -197 -107 -224 -139c-7 -8 -10 -17 -10 -27c0 -22 17 -40 40 -40c38 0 197 107 224 139c7 8 10 17 10 27zM256 138c55 0 90 -22 90 -77c0 -25 -15 -112 -73 -151c-34 -23 -92 -48 -183 -48c-55 0 -90 22 -90 77c0 25 15 112 73 151
c34 23 92 48 183 48z" fill="currentColor"/>
</g>
</a>
<g transform="translate(47.6731, 40.7713)">
<rect x="-0.0396" y="-5.7544" width="0.0792" height="5.7544" ry="0.0396" fill="currentColor"/>
</g>
<a style="color:inherit;" xlink:href="textedit:///Users/mariya/repos/pesnarka_bd_2012/sheets/bg-new/000_empty_template.ly:17:33:34">
<g transform="translate(50.9790, 33.2713)">
<path transform="scale(0.0040, -0.0040)" d="M310 63c0 22 -17 40 -40 40c-38 0 -197 -107 -224 -139c-7 -8 -10 -17 -10 -27c0 -22 17 -40 40 -40c38 0 197 107 224 139c7 8 10 17 10 27zM256 138c55 0 90 -22 90 -77c0 -25 -15 -112 -73 -151c-34 -23 -92 -48 -183 -48c-55 0 -90 22 -90 77c0 25 15 112 73 151
c34 23 92 48 183 48z" fill="currentColor"/>
</g>
</a>
<g transform="translate(51.0186, 40.7713)">
<rect x="-0.0396" y="-7.2544" width="0.0792" height="7.2544" ry="0.0396" fill="currentColor"/>
</g>
<a style="color:inherit;" xlink:href="textedit:///Users/mariya/repos/pesnarka_bd_2012/sheets/bg-new/000_empty_template.ly:17:36:37">
<g transform="translate(54.3246, 32.2713)">
<path transform="scale(0.0040, -0.0040)" d="M310 63c0 22 -17 40 -40 40c-38 0 -197 -107 -224 -139c-7 -8 -10 -17 -10 -27c0 -22 17 -40 40 -40c38 0 197 107 224 139c7 8 10 17 10 27zM256 138c55 0 90 -22 90 -77c0 -25 -15 -112 -73 -151c-34 -23 -92 -48 -183 -48c-55 0 -90 22 -90 77c0 25 15 112 73 151
c34 23 92 48 183 48z" fill="currentColor"/>
</g>
</a>
<g transform="translate(54.3642, 40.7713)">
<rect x="-0.0396" y="-8.2544" width="0.0792" height="8.2544" ry="0.0396" fill="currentColor"/>
</g>
<g transform="translate(57.7097, 40.7713)">
<rect x="-0.0396" y="-9.2544" width="0.0792" height="9.2544" ry="0.0396" fill="currentColor"/>
</g>
<g transform="translate(91.1654, 40.7713)">
<rect x="-0.0396" y="-21.2544" width="0.0792" height="21.2544" ry="0.0396" fill="currentColor"/>
</g>
<a style="color:inherit;" xlink:href="textedit:///Users/mariya/repos/pesnarka_bd_2012/sheets/bg-new/000_empty_template.ly:17:42:43">
<g transform="translate(61.0157, 29.7713)">
<path transform="scale(0.0040, -0.0040)" d="M310 63c0 22 -17 40 -40 40c-38 0 -197 -107 -224 -139c-7 -8 -10 -17 -10 -27c0 -22 17 -40 40 -40c38 0 197 107 224 139c7 8 10 17 10 27zM256 138c55 0 90 -22 90 -77c0 -25 -15 -112 -73 -151c-34 -23 -92 -48 -183 -48c-55 0 -90 22 -90 77c0 25 15 112 73 151
c34 23 92 48 183 48z" fill="currentColor"/>
</g>
</a>
<g transform="translate(61.0553, 40.7713)">
<rect x="-0.0396" y="-10.7544" width="0.0792" height="10.7544" ry="0.0396" fill="currentColor"/>
</g>
<a style="color:inherit;" xlink:href="textedit:///Users/mariya/repos/pesnarka_bd_2012/sheets/bg-new/000_empty_template.ly:17:69:70">
<g transform="translate(91.1258, 19.2713)">
<path transform="scale(0.0040, -0.0040)" d="M310 63c0 22 -17 40 -40 40c-38 0 -197 -107 -224 -139c-7 -8 -10 -17 -10 -27c0 -22 17 -40 40 -40c38 0 197 107 224 139c7 8 10 17 10 27zM256 138c55 0 90 -22 90 -77c0 -25 -15 -112 -73 -151c-34 -23 -92 -48 -183 -48c-55 0 -90 22 -90 77c0 25 15 112 73 151
c34 23 92 48 183 48z" fill="currentColor"/>
</g>
</a>
<a style="color:inherit;" xlink:href="textedit:///Users/mariya/repos/pesnarka_bd_2012/sheets/bg-new/000_empty_template.ly:17:45:46">
<g transform="translate(64.3612, 28.7713)">
<path transform="scale(0.0040, -0.0040)" d="M310 63c0 22 -17 40 -40 40c-38 0 -197 -107 -224 -139c-7 -8 -10 -17 -10 -27c0 -22 17 -40 40 -40c38 0 197 107 224 139c7 8 10 17 10 27zM256 138c55 0 90 -22 90 -77c0 -25 -15 -112 -73 -151c-34 -23 -92 -48 -183 -48c-55 0 -90 22 -90 77c0 25 15 112 73 151
c34 23 92 48 183 48z" fill="currentColor"/>
</g>
</a>
<g transform="translate(64.4009, 40.7713)">
<rect x="-0.0396" y="-11.7544" width="0.0792" height="11.7544" ry="0.0396" fill="currentColor"/>
</g>
<a style="color:inherit;" xlink:href="textedit:///Users/mariya/repos/pesnarka_bd_2012/sheets/bg-new/000_empty_template.ly:17:47:48">
<g transform="translate(67.7068, 27.7713)">
<path transform="scale(0.0040, -0.0040)" d="M310 63c0 22 -17 40 -40 40c-38 0 -197 -107 -224 -139c-7 -8 -10 -17 -10 -27c0 -22 17 -40 40 -40c38 0 197 107 224 139c7 8 10 17 10 27zM256 138c55 0 90 -22 90 -77c0 -25 -15 -112 -73 -151c-34 -23 -92 -48 -183 -48c-55 0 -90 22 -90 77c0 25 15 112 73 151
c34 23 92 48 183 48z" fill="currentColor"/>
</g>
</a>
<g transform="translate(67.7464, 40.7713)">
<rect x="-0.0396" y="-12.7544" width="0.0792" height="12.7544" ry="0.0396" fill="currentColor"/>
</g>
<a style="color:inherit;" xlink:href="textedit:///Users/mariya/repos/pesnarka_bd_2012/sheets/bg-new/000_empty_template.ly:17:51:52">
<g transform="translate(71.0524, 26.2713)">
<path transform="scale(0.0040, -0.0040)" d="M310 63c0 22 -17 40 -40 40c-38 0 -197 -107 -224 -139c-7 -8 -10 -17 -10 -27c0 -22 17 -40 40 -40c38 0 197 107 224 139c7 8 10 17 10 27zM256 138c55 0 90 -22 90 -77c0 -25 -15 -112 -73 -151c-34 -23 -92 -48 -183 -48c-55 0 -90 22 -90 77c0 25 15 112 73 151
c34 23 92 48 183 48z" fill="currentColor"/>
</g>
</a>
<g transform="translate(71.0920, 40.7713)">
<rect x="-0.0396" y="-14.2544" width="0.0792" height="14.2544" ry="0.0396" fill="currentColor"/>
</g>
<a style="color:inherit;" xlink:href="textedit:///Users/mariya/repos/pesnarka_bd_2012/sheets/bg-new/000_empty_template.ly:17:54:55">
<g transform="translate(74.3979, 25.2713)">
<path transform="scale(0.0040, -0.0040)" d="M310 63c0 22 -17 40 -40 40c-38 0 -197 -107 -224 -139c-7 -8 -10 -17 -10 -27c0 -22 17 -40 40 -40c38 0 197 107 224 139c7 8 10 17 10 27zM256 138c55 0 90 -22 90 -77c0 -25 -15 -112 -73 -151c-34 -23 -92 -48 -183 -48c-55 0 -90 22 -90 77c0 25 15 112 73 151
c34 23 92 48 183 48z" fill="currentColor"/>
</g>
</a>
<g transform="translate(74.4376, 40.7713)">
<rect x="-0.0396" y="-15.2544" width="0.0792" height="15.2544" ry="0.0396" fill="currentColor"/>
</g>
<g transform="translate(87.8198, 40.7713)">
<rect x="-0.0396" y="-19.7544" width="0.0792" height="19.7544" ry="0.0396" fill="currentColor"/>
</g>
<a style="color:inherit;" xlink:href="textedit:///Users/mariya/repos/pesnarka_bd_2012/sheets/bg-new/000_empty_template.ly:17:56:57">
<g transform="translate(77.7435, 24.2713)">
<path transform="scale(0.0040, -0.0040)" d="M310 63c0 22 -17 40 -40 40c-38 0 -197 -107 -224 -139c-7 -8 -10 -17 -10 -27c0 -22 17 -40 40 -40c38 0 197 107 224 139c7 8 10 17 10 27zM256 138c55 0 90 -22 90 -77c0 -25 -15 -112 -73 -151c-34 -23 -92 -48 -183 -48c-55 0 -90 22 -90 77c0 25 15 112 73 151
c34 23 92 48 183 48z" fill="currentColor"/>
</g>
</a>
<g transform="translate(77.7831, 40.7713)">
<rect x="-0.0396" y="-16.2544" width="0.0792" height="16.2544" ry="0.0396" fill="currentColor"/>
</g>
<a style="color:inherit;" xlink:href="textedit:///Users/mariya/repos/pesnarka_bd_2012/sheets/bg-new/000_empty_template.ly:17:65:66">
<g transform="translate(87.7802, 20.7713)">
<path transform="scale(0.0040, -0.0040)" d="M310 63c0 22 -17 40 -40 40c-38 0 -197 -107 -224 -139c-7 -8 -10 -17 -10 -27c0 -22 17 -40 40 -40c38 0 197 107 224 139c7 8 10 17 10 27zM256 138c55 0 90 -22 90 -77c0 -25 -15 -112 -73 -151c-34 -23 -92 -48 -183 -48c-55 0 -90 22 -90 77c0 25 15 112 73 151
c34 23 92 48 183 48z" fill="currentColor"/>
</g>
</a>
<a style="color:inherit;" xlink:href="textedit:///Users/mariya/repos/pesnarka_bd_2012/sheets/bg-new/000_empty_template.ly:17:60:61">
<g transform="translate(81.0891, 22.7713)">
<path transform="scale(0.0040, -0.0040)" d="M310 63c0 22 -17 40 -40 40c-38 0 -197 -107 -224 -139c-7 -8 -10 -17 -10 -27c0 -22 17 -40 40 -40c38 0 197 107 224 139c7 8 10 17 10 27zM256 138c55 0 90 -22 90 -77c0 -25 -15 -112 -73 -151c-34 -23 -92 -48 -183 -48c-55 0 -90 22 -90 77c0 25 15 112 73 151
c34 23 92 48 183 48z" fill="currentColor"/>
</g>
</a>
<g transform="translate(81.1287, 40.7713)">
<rect x="-0.0396" y="-17.7544" width="0.0792" height="17.7544" ry="0.0396" fill="currentColor"/>
</g>
<a style="color:inherit;" xlink:href="textedit:///Users/mariya/repos/pesnarka_bd_2012/sheets/bg-new/000_empty_template.ly:17:63:64">
<g transform="translate(84.4346, 21.7713)">
<path transform="scale(0.0040, -0.0040)" d="M310 63c0 22 -17 40 -40 40c-38 0 -197 -107 -224 -139c-7 -8 -10 -17 -10 -27c0 -22 17 -40 40 -40c38 0 197 107 224 139c7 8 10 17 10 27zM256 138c55 0 90 -22 90 -77c0 -25 -15 -112 -73 -151c-34 -23 -92 -48 -183 -48c-55 0 -90 22 -90 77c0 25 15 112 73 151
c34 23 92 48 183 48z" fill="currentColor"/>
</g>
</a>
<g transform="translate(84.4742, 40.7713)">
<rect x="-0.0396" y="-18.7544" width="0.0792" height="18.7544" ry="0.0396" fill="currentColor"/>
</g>
<a style="color:inherit;" xlink:href="textedit:///Users/mariya/repos/pesnarka_bd_2012/sheets/bg-new/000_empty_template.ly:17:38:39">
<g transform="translate(57.6701, 31.2713)">
<path transform="scale(0.0040, -0.0040)" d="M310 63c0 22 -17 40 -40 40c-38 0 -197 -107 -224 -139c-7 -8 -10 -17 -10 -27c0 -22 17 -40 40 -40c38 0 197 107 224 139c7 8 10 17 10 27zM256 138c55 0 90 -22 90 -77c0 -25 -15 -112 -73 -151c-34 -23 -92 -48 -183 -48c-55 0 -90 22 -90 77c0 25 15 112 73 151
c34 23 92 48 183 48z" fill="currentColor"/>
</g>
</a>
<g transform="translate(12.3811, 52.7713)">
<text font-family="Times New Roman" font-size="2.9371" text-anchor="start" fill="currentColor">
<tspan>2.</tspan>
</text>
</g>
<g transform="translate(15.3672, 52.7713)">
<text font-family="Times New Roman" font-size="2.9371" text-anchor="start" fill="currentColor">
<tspan>Текст</tspan>
</text>
</g>
<g transform="translate(23.0878, 52.7713)">
<text font-family="Times New Roman" font-size="2.9371" text-anchor="start" fill="currentColor">
<tspan>на</tspan>
</text>
</g>
<g transform="translate(26.8023, 52.7713)">
<text font-family="Times New Roman" font-size="2.9371" text-anchor="start" fill="currentColor">
<tspan>кирилица</tspan>
</text>
</g>
<g transform="translate(12.3811, 56.1713)">
<text font-family="Times New Roman" font-size="2.9371" text-anchor="start" fill="currentColor">
<tspan>   </tspan>
</text>
</g>
<g transform="translate(15.3672, 56.1713)">
<text font-family="Times New Roman" font-size="2.9371" text-anchor="start" fill="currentColor">
<tspan>Текст</tspan>
</text>
</g>
<g transform="translate(23.0878, 56.1713)">
<text font-family="Times New Roman" font-size="2.9371" text-anchor="start" fill="currentColor">
<tspan>на</tspan>
</text>
</g>
<g transform="translate(26.8023, 56.1713)">
<text font-family="Times New Roman" font-size="2.9371" text-anchor="start" fill="currentColor">
<tspan>кирилица</tspan>
</text>
</g>
</svg>
